<svg width="29" height="28" viewBox="0 0 29 28" fill="none" xmlns="http://www.w3.org/2000/svg">
<g clip-path="url(#clip0_7571_844)">
<path d="M23.5 7C23.8094 7 24.1062 7.12292 24.3249 7.34171C24.5437 7.5605 24.6667 7.85725 24.6667 8.16667V19.8333C24.6667 20.1428 24.5437 20.4395 24.3249 20.6583C24.1062 20.8771 23.8094 21 23.5 21H10.6667L4.83332 15.1667C4.54635 14.8458 4.3877 14.4305 4.3877 14C4.3877 13.5695 4.54635 13.1542 4.83332 12.8333L10.6667 7H23.5Z" stroke="#111827" stroke-width="1.5" stroke-linecap="round" stroke-linejoin="round"/>
<path d="M18.8334 11.6666L14.1667 16.3333M14.1667 11.6666L18.8334 16.3333L14.1667 11.6666Z" stroke="#111827" stroke-width="1.5" stroke-linecap="round" stroke-linejoin="round"/>
</g>
<defs>
<clipPath id="clip0_7571_844">
<rect width="28" height="28" fill="white" transform="translate(0.166748)"/>
</clipPath>
</defs>
</svg>
